<mxfile host="app.diagrams.net" agent="Mozilla/5.0 (Windows NT 10.0; Win64; x64) AppleWebKit/537.36 (KHTML, like Gecko) Chrome/131.0.0.0 Safari/537.36" version="24.7.16">
  <diagram name="PÃ¡gina-1" id="T7IS_TsAEw34PagdMTnJ">
    <mxGraphModel dx="1050" dy="1772" grid="1" gridSize="10" guides="1" tooltips="1" connect="1" arrows="1" fold="1" page="1" pageScale="1" pageWidth="827" pageHeight="1169" math="0" shadow="0">
      <root>
        <mxCell id="0" />
        <mxCell id="1" parent="0" />
        <mxCell id="DG3pzvdwAl2KAKGVziX6-12" style="edgeStyle=orthogonalEdgeStyle;rounded=0;orthogonalLoop=1;jettySize=auto;html=1;entryX=0.5;entryY=0;entryDx=0;entryDy=0;" edge="1" parent="1" source="DG3pzvdwAl2KAKGVziX6-1" target="DG3pzvdwAl2KAKGVziX6-11">
          <mxGeometry relative="1" as="geometry" />
        </mxCell>
        <mxCell id="DG3pzvdwAl2KAKGVziX6-1" value="SQLc" style="rounded=0;whiteSpace=wrap;html=1;" vertex="1" parent="1">
          <mxGeometry x="330" y="-62.5" width="120" height="60" as="geometry" />
        </mxCell>
        <mxCell id="DG3pzvdwAl2KAKGVziX6-8" style="edgeStyle=orthogonalEdgeStyle;rounded=0;orthogonalLoop=1;jettySize=auto;html=1;entryX=0;entryY=0.5;entryDx=0;entryDy=0;entryPerimeter=0;" edge="1" parent="1" source="DG3pzvdwAl2KAKGVziX6-3" target="DG3pzvdwAl2KAKGVziX6-19">
          <mxGeometry relative="1" as="geometry" />
        </mxCell>
        <mxCell id="DG3pzvdwAl2KAKGVziX6-7" style="edgeStyle=orthogonalEdgeStyle;rounded=0;orthogonalLoop=1;jettySize=auto;html=1;entryX=0;entryY=0.5;entryDx=0;entryDy=0;entryPerimeter=0;" edge="1" parent="1" source="DG3pzvdwAl2KAKGVziX6-5" target="DG3pzvdwAl2KAKGVziX6-19">
          <mxGeometry relative="1" as="geometry">
            <Array as="points">
              <mxPoint x="190" y="8" />
              <mxPoint x="190" y="-32" />
            </Array>
          </mxGeometry>
        </mxCell>
        <mxCell id="DG3pzvdwAl2KAKGVziX6-11" value="" style="rounded=0;whiteSpace=wrap;html=1;" vertex="1" parent="1">
          <mxGeometry x="135" y="82.5" width="465" height="80" as="geometry" />
        </mxCell>
        <mxCell id="DG3pzvdwAl2KAKGVziX6-13" value="" style="group" vertex="1" connectable="0" parent="1">
          <mxGeometry x="70" width="100" height="35" as="geometry" />
        </mxCell>
        <mxCell id="DG3pzvdwAl2KAKGVziX6-5" value="" style="whiteSpace=wrap;html=1;shape=mxgraph.basic.document" vertex="1" parent="DG3pzvdwAl2KAKGVziX6-13">
          <mxGeometry width="100" height="34.99999999999999" as="geometry" />
        </mxCell>
        <mxCell id="DG3pzvdwAl2KAKGVziX6-6" value="queries.sql" style="text;html=1;align=center;verticalAlign=middle;resizable=0;points=[];autosize=1;strokeColor=none;fillColor=none;" vertex="1" parent="DG3pzvdwAl2KAKGVziX6-13">
          <mxGeometry x="10" y="12.25" width="80" height="30" as="geometry" />
        </mxCell>
        <mxCell id="DG3pzvdwAl2KAKGVziX6-14" value="" style="group" vertex="1" connectable="0" parent="1">
          <mxGeometry x="320" y="110" width="100" height="40" as="geometry" />
        </mxCell>
        <mxCell id="DG3pzvdwAl2KAKGVziX6-15" value="" style="whiteSpace=wrap;html=1;shape=mxgraph.basic.document" vertex="1" parent="DG3pzvdwAl2KAKGVziX6-14">
          <mxGeometry width="100" height="40" as="geometry" />
        </mxCell>
        <mxCell id="DG3pzvdwAl2KAKGVziX6-16" value="models.go" style="text;html=1;align=center;verticalAlign=middle;resizable=0;points=[];autosize=1;strokeColor=none;fillColor=none;" vertex="1" parent="DG3pzvdwAl2KAKGVziX6-14">
          <mxGeometry x="10" y="14" width="80" height="30" as="geometry" />
        </mxCell>
        <mxCell id="DG3pzvdwAl2KAKGVziX6-17" value="" style="group" vertex="1" connectable="0" parent="1">
          <mxGeometry x="70" y="-50" width="100" height="35" as="geometry" />
        </mxCell>
        <mxCell id="DG3pzvdwAl2KAKGVziX6-4" value="" style="whiteSpace=wrap;html=1;shape=mxgraph.basic.document" vertex="1" parent="DG3pzvdwAl2KAKGVziX6-17">
          <mxGeometry width="100" height="35" as="geometry" />
        </mxCell>
        <mxCell id="DG3pzvdwAl2KAKGVziX6-3" value="schema.sql" style="text;html=1;align=center;verticalAlign=middle;resizable=0;points=[];autosize=1;strokeColor=none;fillColor=none;" vertex="1" parent="DG3pzvdwAl2KAKGVziX6-17">
          <mxGeometry x="10" y="11.052631578947368" width="80" height="30" as="geometry" />
        </mxCell>
        <mxCell id="DG3pzvdwAl2KAKGVziX6-18" value="" style="group" vertex="1" connectable="0" parent="1">
          <mxGeometry x="210" y="-60" width="100" height="55" as="geometry" />
        </mxCell>
        <mxCell id="DG3pzvdwAl2KAKGVziX6-19" value="" style="whiteSpace=wrap;html=1;shape=mxgraph.basic.document" vertex="1" parent="DG3pzvdwAl2KAKGVziX6-18">
          <mxGeometry width="100" height="54.99999999999999" as="geometry" />
        </mxCell>
        <mxCell id="DG3pzvdwAl2KAKGVziX6-20" value="sqlc.yaml" style="text;html=1;align=center;verticalAlign=middle;resizable=0;points=[];autosize=1;strokeColor=none;fillColor=none;" vertex="1" parent="DG3pzvdwAl2KAKGVziX6-18">
          <mxGeometry x="15" y="19.25" width="70" height="30" as="geometry" />
        </mxCell>
        <mxCell id="DG3pzvdwAl2KAKGVziX6-21" style="edgeStyle=orthogonalEdgeStyle;rounded=0;orthogonalLoop=1;jettySize=auto;html=1;exitX=1;exitY=0.5;exitDx=0;exitDy=0;exitPerimeter=0;entryX=0;entryY=0.5;entryDx=0;entryDy=0;" edge="1" parent="1" source="DG3pzvdwAl2KAKGVziX6-19" target="DG3pzvdwAl2KAKGVziX6-1">
          <mxGeometry relative="1" as="geometry" />
        </mxCell>
        <mxCell id="DG3pzvdwAl2KAKGVziX6-22" value="" style="group" vertex="1" connectable="0" parent="1">
          <mxGeometry x="490" y="106.25" width="100" height="47.5" as="geometry" />
        </mxCell>
        <mxCell id="DG3pzvdwAl2KAKGVziX6-23" value="" style="whiteSpace=wrap;html=1;shape=mxgraph.basic.document" vertex="1" parent="DG3pzvdwAl2KAKGVziX6-22">
          <mxGeometry width="100" height="47.5" as="geometry" />
        </mxCell>
        <mxCell id="DG3pzvdwAl2KAKGVziX6-24" value="db.go" style="text;html=1;align=center;verticalAlign=middle;resizable=0;points=[];autosize=1;strokeColor=none;fillColor=none;" vertex="1" parent="DG3pzvdwAl2KAKGVziX6-22">
          <mxGeometry x="25" y="16.625" width="50" height="30" as="geometry" />
        </mxCell>
        <mxCell id="DG3pzvdwAl2KAKGVziX6-25" value="" style="group" vertex="1" connectable="0" parent="1">
          <mxGeometry x="150" y="110" width="100" height="40" as="geometry" />
        </mxCell>
        <mxCell id="DG3pzvdwAl2KAKGVziX6-26" value="" style="whiteSpace=wrap;html=1;shape=mxgraph.basic.document" vertex="1" parent="DG3pzvdwAl2KAKGVziX6-25">
          <mxGeometry width="100" height="40" as="geometry" />
        </mxCell>
        <mxCell id="DG3pzvdwAl2KAKGVziX6-27" value="queries.sql.go" style="text;html=1;align=center;verticalAlign=middle;resizable=0;points=[];autosize=1;strokeColor=none;fillColor=none;" vertex="1" parent="DG3pzvdwAl2KAKGVziX6-25">
          <mxGeometry y="14" width="100" height="30" as="geometry" />
        </mxCell>
        <UserObject label="sqlc generate" placeholders="1" name="Variable" id="DG3pzvdwAl2KAKGVziX6-30">
          <mxCell style="text;html=1;strokeColor=none;fillColor=none;align=center;verticalAlign=middle;whiteSpace=wrap;overflow=hidden;" vertex="1" parent="1">
            <mxGeometry x="410" y="30" width="80" height="20" as="geometry" />
          </mxCell>
        </UserObject>
        <mxCell id="DG3pzvdwAl2KAKGVziX6-38" style="edgeStyle=orthogonalEdgeStyle;rounded=0;orthogonalLoop=1;jettySize=auto;html=1;" edge="1" parent="1" source="DG3pzvdwAl2KAKGVziX6-31" target="DG3pzvdwAl2KAKGVziX6-37">
          <mxGeometry relative="1" as="geometry" />
        </mxCell>
        <mxCell id="DG3pzvdwAl2KAKGVziX6-31" value="Handlers" style="rounded=0;whiteSpace=wrap;html=1;" vertex="1" parent="1">
          <mxGeometry x="490" y="220" width="120" height="60" as="geometry" />
        </mxCell>
        <mxCell id="DG3pzvdwAl2KAKGVziX6-43" style="edgeStyle=orthogonalEdgeStyle;rounded=0;orthogonalLoop=1;jettySize=auto;html=1;entryX=0;entryY=0.5;entryDx=0;entryDy=0;" edge="1" parent="1" source="DG3pzvdwAl2KAKGVziX6-32" target="DG3pzvdwAl2KAKGVziX6-31">
          <mxGeometry relative="1" as="geometry" />
        </mxCell>
        <mxCell id="DG3pzvdwAl2KAKGVziX6-32" value="Service" style="rounded=0;whiteSpace=wrap;html=1;" vertex="1" parent="1">
          <mxGeometry x="310" y="220" width="120" height="60" as="geometry" />
        </mxCell>
        <mxCell id="DG3pzvdwAl2KAKGVziX6-42" style="edgeStyle=orthogonalEdgeStyle;rounded=0;orthogonalLoop=1;jettySize=auto;html=1;exitX=1;exitY=0.5;exitDx=0;exitDy=0;" edge="1" parent="1" source="DG3pzvdwAl2KAKGVziX6-33" target="DG3pzvdwAl2KAKGVziX6-32">
          <mxGeometry relative="1" as="geometry" />
        </mxCell>
        <mxCell id="DG3pzvdwAl2KAKGVziX6-33" value="Repository" style="rounded=0;whiteSpace=wrap;html=1;" vertex="1" parent="1">
          <mxGeometry x="120" y="220" width="120" height="60" as="geometry" />
        </mxCell>
        <mxCell id="DG3pzvdwAl2KAKGVziX6-37" value="Endpoint" style="ellipse;whiteSpace=wrap;html=1;aspect=fixed;" vertex="1" parent="1">
          <mxGeometry x="680" y="210" width="80" height="80" as="geometry" />
        </mxCell>
        <mxCell id="DG3pzvdwAl2KAKGVziX6-40" style="edgeStyle=orthogonalEdgeStyle;rounded=0;orthogonalLoop=1;jettySize=auto;html=1;entryX=0.5;entryY=0;entryDx=0;entryDy=0;" edge="1" parent="1" source="DG3pzvdwAl2KAKGVziX6-27" target="DG3pzvdwAl2KAKGVziX6-33">
          <mxGeometry relative="1" as="geometry" />
        </mxCell>
        <mxCell id="DG3pzvdwAl2KAKGVziX6-41" style="edgeStyle=orthogonalEdgeStyle;rounded=0;orthogonalLoop=1;jettySize=auto;html=1;entryX=0.5;entryY=0;entryDx=0;entryDy=0;" edge="1" parent="1" source="DG3pzvdwAl2KAKGVziX6-16" target="DG3pzvdwAl2KAKGVziX6-32">
          <mxGeometry relative="1" as="geometry" />
        </mxCell>
        <mxCell id="DG3pzvdwAl2KAKGVziX6-44" style="edgeStyle=orthogonalEdgeStyle;rounded=0;orthogonalLoop=1;jettySize=auto;html=1;entryX=0.75;entryY=0;entryDx=0;entryDy=0;" edge="1" parent="1" source="DG3pzvdwAl2KAKGVziX6-16" target="DG3pzvdwAl2KAKGVziX6-33">
          <mxGeometry relative="1" as="geometry">
            <Array as="points">
              <mxPoint x="340" y="190" />
              <mxPoint x="210" y="190" />
            </Array>
          </mxGeometry>
        </mxCell>
        <UserObject label="database (generate for sqlc)" placeholders="1" name="Variable" id="DG3pzvdwAl2KAKGVziX6-45">
          <mxCell style="text;html=1;strokeColor=none;fillColor=none;align=center;verticalAlign=middle;whiteSpace=wrap;overflow=hidden;" vertex="1" parent="1">
            <mxGeometry x="120" y="82.5" width="200" height="20" as="geometry" />
          </mxCell>
        </UserObject>
      </root>
    </mxGraphModel>
  </diagram>
</mxfile>
